<?xml version="1.0" encoding="iso-8859-1"?>
<!-- Uploaded to: SVG Repo, www.svgrepo.com, Generator: SVG Repo Mixer Tools -->
<svg version="1.1" id="Layer_1" xmlns="http://www.w3.org/2000/svg" xmlns:xlink="http://www.w3.org/1999/xlink" 
	 viewBox="0 0 512 512" xml:space="preserve">
<polygon style="fill:#E3744E;" points="279.594,204.029 256,156.616 232.405,204.029 202.51,189.153 256,81.666 309.488,189.153 "/>
<polygon style="fill:#E05323;" points="279.594,204.029 256,156.616 256,81.666 309.488,189.153 "/>
<rect x="239.304" y="241.117" style="fill:#AB7315;" width="33.391" height="172.911"/>
<g>
	<rect x="34.498" y="325.218" style="fill:#744E12;" width="101.899" height="33.391"/>
	<rect x="17.802" y="297.838" style="fill:#744E12;" width="33.391" height="132.497"/>
	<rect x="119.708" y="297.838" style="fill:#744E12;" width="33.391" height="132.497"/>
</g>
<polygon style="fill:#AB7315;" points="170.564,313.321 0,313.321 0,122.202 33.391,122.202 33.391,279.93 170.564,279.93 "/>
<g>
	<rect x="375.597" y="325.218" style="fill:#744E12;" width="101.899" height="33.391"/>
	<rect x="460.811" y="297.838" style="fill:#744E12;" width="33.391" height="132.497"/>
	<rect x="358.901" y="297.838" style="fill:#744E12;" width="33.391" height="132.497"/>
</g>
<polygon style="fill:#AB7315;" points="341.436,313.321 512,313.321 512,122.202 478.609,122.202 478.609,279.93 341.436,279.93 "/>
<path style="fill:#744E12;" d="M400.791,257.809H111.209v-61.217h289.583V257.809z"/>
<rect x="84.302" y="179.9" style="fill:#AB7315;" width="343.407" height="33.391"/>
<rect x="197.632" y="396.943" style="fill:#744E12;" width="116.725" height="33.391"/>
</svg>